<svg xmlns="http://www.w3.org/2000/svg" viewBox="0 0 168 168"><g><circle fill="#191414" cx="84" cy="84" r="84"/><path d="M120.1 115.2c-2.7 4.5-8.5 6.2-13.1 3.5-35.8-21.9-81.2-9.5-81.7-9.4-5.1 1.4-10.4-1.5-11.8-6.6-1.4-5.1 1.5-10.4 6.6-11.8.5-.1 51.2-14.1 91.2 11.1 4.6 2.8 6.2 8.6 3.8 13.2zm17.6-23.7c-3.4 5.6-10.7 7.7-16.3 4.3-41.1-25.1-103.9-12.2-104.5-12.1-6.3 1.7-12.9-1.9-14.6-8.2-1.7-6.3 1.9-12.9 8.2-14.6.7-.2 70.1-19.3 125 15.2 5.7 3.5 7.6 10.9 4.2 16.4zm1.7-27.1C99.2 44.7 44.2 60.2 43.6 60.3c-7.5 2-15.2-2.2-17.2-9.7-2-7.5 2.2-15.2 9.7-17.2.8-.2 81.2-22.3 145.1 17.6 7.6 4.7 10.1 14.7 5.4 22.3-4.7 7.6-14.7 10.1-22.3 5.4z" fill="#fff"/></g></svg>
